# xmcd
#
# Track frame offsets:
#	150
#	13773
#	36420
#	53811
#	70458
#	92121
#	110688
#	126207
#	140382
#	157101
#	174180
#	184107
#	204930
#	218793
#
# Disc length: 3313 seconds
#
# Revision: 0
# Processed by: cddbd v1.5.2PL0 Copyright (c) Steve Scherf et al.
# Submitted via: dBpowerAMP V4.0
#
DISCID=cb0cef0e
DTITLE=The Howlin' Blues Trio - Back To The Roots
DYEAR=2006
DGENRE=Blues
TTITLE0=The Howlin' Shuffle
TTITLE1=Cut Your Loose (Gary Smith)
TTITLE2=King Bee (Slim Harpo)
TTITLE3=Boot Knockin' Boogie (James Cotton)
TTITLE4=How Long (Pinetop Perkins)
TTITLE5=Mellow Down Easy (Little Walter)
TTITLE6=Sarp Harp (Jimmy Rogers)
TTITLE7=Peach Tree (Sonny Boy Williamson II)
TTITLE8=Oh Baby (Little Walter)
TTITLE9=Big Boss Man (Jimmy Reed)
TTITLE10=Dimples (John Lee Hooker)
TTITLE11=Everything Gonna Be All Right (Little Walter)
TTITLE12=Walkin' Blues (Little Walter)
TTITLE13=Last Night (Leroy Carr)
EXTD=
EXTT0=
EXTT1=
EXTT2=
EXTT3=
EXTT4=
EXTT5=
EXTT6=
EXTT7=
EXTT8=
EXTT9=
EXTT10=
EXTT11=
EXTT12=
EXTT13=
PLAYORDER=
